<svg xmlns="http://www.w3.org/2000/svg" width="600" height="400" viewBox="0 0 600 400">
  <defs>
    <radialGradient id="glow-jasper-ai" cx="50%" cy="40%" r="50%">
      <stop offset="0%" stop-color="#F43F5E" stop-opacity="0.12"/>
      <stop offset="100%" stop-color="#0a0a0f" stop-opacity="0"/>
    </radialGradient>
    <linearGradient id="accent-jasper-ai" x1="0%" y1="0%" x2="100%" y2="100%">
      <stop offset="0%" stop-color="#F43F5E" stop-opacity="0.25"/>
      <stop offset="100%" stop-color="#F43F5E" stop-opacity="0.05"/>
    </linearGradient>
  </defs>

  <!-- Background -->
  <rect width="600" height="400" fill="#0a0a0f"/>
  <rect width="600" height="400" fill="url(#glow-jasper-ai)"/>

  <!-- Border -->
  <rect x="1" y="1" width="598" height="398" rx="4" fill="none" stroke="#F43F5E" stroke-width="1" opacity="0.3"/>
  <rect x="12" y="12" width="576" height="376" rx="2" fill="none" stroke="#F43F5E" stroke-width="0.5" opacity="0.15"/>

  <!-- Corner brackets -->
  <path d="M 24 42 L 24 24 L 42 24" fill="none" stroke="#F43F5E" stroke-width="2" opacity="0.5"/>
  <path d="M 558 24 L 576 24 L 576 42" fill="none" stroke="#F43F5E" stroke-width="2" opacity="0.5"/>
  <path d="M 24 358 L 24 376 L 42 376" fill="none" stroke="#F43F5E" stroke-width="2" opacity="0.5"/>
  <path d="M 558 376 L 576 376 L 576 358" fill="none" stroke="#F43F5E" stroke-width="2" opacity="0.5"/>

  <!-- Accent line top -->
  <rect x="260" y="124" width="80" height="3" rx="1.5" fill="#F43F5E" opacity="0.6"/>

  <!-- Tool name -->
  <text x="300" y="180" text-anchor="middle" font-family="'Space Grotesk','Inter',system-ui,sans-serif" font-size="36" font-weight="700" fill="white" letter-spacing="1" opacity="0.95">Jasper AI</text>

  <!-- Category -->
  <text x="300" y="226" text-anchor="middle" font-family="'Inter',system-ui,sans-serif" font-size="18" fill="#F43F5E" letter-spacing="2" opacity="0.7">AI CONTENT PLATFORM</text>

  <!-- Decorative lines -->
  <line x1="180" y1="246" x2="420" y2="246" stroke="#F43F5E" stroke-width="0.5" opacity="0.2"/>

  <!-- Branding -->
  <text x="300" y="370" text-anchor="middle" font-family="'Space Grotesk','Inter',system-ui,sans-serif" font-size="11" font-weight="600" fill="#F43F5E" letter-spacing="3.5" opacity="0.4">SHELBYAIDEALS</text>
</svg>
