<svg xmlns="http://www.w3.org/2000/svg" viewBox="0 0 900 600">
  <rect width="900" height="600" fill="#DE2910"/>
  <g transform="translate(150,100)" fill="#FFDE00">
    <path d="M0,-80 L18.5,-24.7 L78.2,-24.7 L29.8,9.4 L48.3,64.7 L0,30.6 L-48.3,64.7 L-29.8,9.4 L-78.2,-24.7 L-18.5,-24.7 Z"/>
  </g>
  <g fill="#FFDE00">
    <path transform="translate(300,60) scale(0.4)" d="M0,-80 L18.5,-24.7 L78.2,-24.7 L29.8,9.4 L48.3,64.7 L0,30.6 L-48.3,64.7 L-29.8,9.4 L-78.2,-24.7 L-18.5,-24.7 Z"/>
    <path transform="translate(360,120) scale(0.4)" d="M0,-80 L18.5,-24.7 L78.2,-24.7 L29.8,9.4 L48.3,64.7 L0,30.6 L-48.3,64.7 L-29.8,9.4 L-78.2,-24.7 L-18.5,-24.7 Z"/>
    <path transform="translate(360,200) scale(0.4)" d="M0,-80 L18.5,-24.7 L78.2,-24.7 L29.8,9.4 L48.3,64.7 L0,30.6 L-48.3,64.7 L-29.8,9.4 L-78.2,-24.7 L-18.5,-24.7 Z"/>
    <path transform="translate(300,260) scale(0.4)" d="M0,-80 L18.5,-24.7 L78.2,-24.7 L29.8,9.4 L48.3,64.7 L0,30.6 L-48.3,64.7 L-29.8,9.4 L-78.2,-24.7 L-18.5,-24.7 Z"/>
  </g>
</svg>
